<svg width="266" height="49" viewBox="0 0 266 49" fill="none" xmlns="http://www.w3.org/2000/svg">
<path d="M66.9412 11.1339V4.29944H94.096V11.1339H84.6986V35.5427H76.3386V11.1339H66.9412Z" fill="#0085FF"/>
<path d="M109.416 25.291V12.1103H117.837V35.5427H109.843V31.0881H109.599C109.091 32.5831 108.201 33.7527 106.93 34.5969C105.658 35.4308 104.148 35.8478 102.399 35.8478C100.761 35.8478 99.3274 35.4715 98.0967 34.7189C96.8763 33.9663 95.9254 32.9289 95.244 31.6068C94.5727 30.2846 94.232 28.7693 94.2219 27.0607V12.1103H102.643V25.291C102.653 26.4504 102.948 27.3607 103.528 28.0217C104.118 28.6828 104.941 29.0134 105.999 29.0134C106.701 29.0134 107.306 28.8659 107.815 28.5709C108.333 28.2658 108.73 27.8387 109.004 27.2895C109.289 26.7301 109.427 26.064 109.416 25.291Z" fill="#0085FF"/>
<path d="M136.094 12.1103V18.2125H120.656V12.1103H136.094ZM123.646 6.49623H132.067V28.0065C132.067 28.3319 132.123 28.6065 132.235 28.8303C132.347 29.0439 132.52 29.2066 132.753 29.3185C132.987 29.4202 133.287 29.471 133.654 29.471C133.908 29.471 134.203 29.4405 134.538 29.3795C134.884 29.3185 135.138 29.2676 135.301 29.2269L136.522 35.1461C136.145 35.2579 135.606 35.3952 134.904 35.558C134.213 35.7207 133.389 35.8275 132.433 35.8783C130.501 35.98 128.879 35.7817 127.567 35.2834C126.255 34.7749 125.268 33.9765 124.607 32.8883C123.946 31.8 123.626 30.4372 123.646 28.7998V6.49623Z" fill="#0085FF"/>
<path d="M150.568 35.9699C148.025 35.9699 145.849 35.4664 144.039 34.4596C142.228 33.4425 140.84 32.0289 139.874 30.2185C138.908 28.3981 138.425 26.2877 138.425 23.8875C138.425 21.4873 138.908 19.382 139.874 17.5717C140.84 15.7512 142.228 14.3376 144.039 13.3307C145.849 12.3137 148.025 11.8051 150.568 11.8051C153.111 11.8051 155.287 12.3137 157.097 13.3307C158.908 14.3376 160.296 15.7512 161.262 17.5717C162.228 19.382 162.711 21.4873 162.711 23.8875C162.711 26.2877 162.228 28.3981 161.262 30.2185C160.296 32.0289 158.908 33.4425 157.097 34.4596C155.287 35.4664 153.111 35.9699 150.568 35.9699ZM150.629 29.7456C151.341 29.7456 151.956 29.5066 152.475 29.0286C152.994 28.5506 153.395 27.8692 153.68 26.9844C153.965 26.0996 154.107 25.0469 154.107 23.8265C154.107 22.5959 153.965 21.5432 153.68 20.6686C153.395 19.7838 152.994 19.1024 152.475 18.6244C151.956 18.1464 151.341 17.9073 150.629 17.9073C149.876 17.9073 149.231 18.1464 148.692 18.6244C148.153 19.1024 147.741 19.7838 147.456 20.6686C147.171 21.5432 147.029 22.5959 147.029 23.8265C147.029 25.0469 147.171 26.0996 147.456 26.9844C147.741 27.8692 148.153 28.5506 148.692 29.0286C149.231 29.5066 149.876 29.7456 150.629 29.7456Z" fill="#0085FF"/>
<path d="M166.129 35.5427V12.1103H174.306V16.5649H174.55C174.977 14.9173 175.653 13.7121 176.579 12.9493C177.514 12.1865 178.608 11.8051 179.859 11.8051C180.225 11.8051 180.586 11.8357 180.942 11.8967C181.308 11.9475 181.659 12.0238 181.994 12.1255V19.3109C181.577 19.1685 181.064 19.0617 180.454 18.9905C179.843 18.9193 179.32 18.8837 178.882 18.8837C178.058 18.8837 177.316 19.0719 176.655 19.4482C176.004 19.8143 175.49 20.333 175.114 21.0042C174.738 21.6653 174.55 22.4433 174.55 23.3383V35.5427H166.129Z" fill="#0085FF"/>
<path d="M184.634 35.5427V4.29944H193.116V16.931H193.543L202.94 4.29944H212.826L202.269 18.2125L213.07 35.5427H202.94L195.923 23.8265L193.116 27.4878V35.5427H184.634Z" fill="#0085FF"/>
<path d="M229.191 25.291V12.1103H237.612V35.5427H229.618V31.0881H229.374C228.866 32.5831 227.976 33.7527 226.704 34.5969C225.433 35.4308 223.923 35.8478 222.174 35.8478C220.536 35.8478 219.102 35.4715 217.872 34.7189C216.651 33.9663 215.7 32.9289 215.019 31.6068C214.348 30.2846 214.007 28.7693 213.997 27.0607V12.1103H222.418V25.291C222.428 26.4504 222.723 27.3607 223.302 28.0217C223.892 28.6828 224.716 29.0134 225.774 29.0134C226.476 29.0134 227.081 28.8659 227.589 28.5709C228.108 28.2658 228.505 27.8387 228.779 27.2895C229.064 26.7301 229.201 26.064 229.191 25.291Z" fill="#0085FF"/>
<path d="M247.021 44.3299C246.055 44.3299 245.134 44.2536 244.26 44.1011C243.385 43.9587 242.617 43.7603 241.956 43.5061L243.787 37.5259C244.478 37.77 245.109 37.9277 245.679 37.9988C246.258 38.07 246.751 38.0294 247.158 37.8768C247.575 37.7242 247.875 37.4344 248.058 37.0072L248.241 36.5801L240.003 12.1103H248.791L252.574 28.3421H252.818L256.662 12.1103H265.511L256.968 37.4954C256.54 38.787 255.92 39.9465 255.106 40.9737C254.303 42.011 253.245 42.8298 251.933 43.4298C250.621 44.0299 248.984 44.3299 247.021 44.3299Z" fill="#0085FF"/>
<path d="M54.8989 0.816351C54.4532 0.454783 53.9316 0.203604 53.375 0.0825225C52.8183 -0.0385595 52.2418 -0.0262511 51.6905 0.118482L31.1333 5.51938V48.8176L53.5918 42.9312C54.3951 42.7212 55.1064 42.2427 55.6125 41.5718C56.1186 40.9009 56.3902 40.0764 56.3843 39.2295V3.78988C56.3751 3.21136 56.2365 2.64263 55.9791 2.12723C55.7216 1.61184 55.3521 1.16344 54.8989 0.816351ZM25.1919 5.51938L4.57516 0.118482C4.0324 -0.00988279 3.46853 -0.0138781 2.92408 0.106784C2.37962 0.227447 1.86808 0.469772 1.42621 0.816351C0.975943 1.17591 0.613011 1.63678 0.365683 2.16306C0.118354 2.68934 -0.00669427 3.26684 0.000276206 3.85057V39.2295C0.000902587 40.0712 0.275628 40.8888 0.781186 41.5534C1.28674 42.2181 1.99441 42.6922 2.79274 42.9009L25.1919 48.8176V5.51938Z" fill="#FFC727"/>
</svg>
