<svg width="48" height="37" viewBox="0 0 48 37" fill="none" xmlns="http://www.w3.org/2000/svg">
<path d="M26.3333 26.4921V28.4497C26.3333 30.0074 25.5958 31.5012 24.2831 32.6026C22.9703 33.704 21.1898 34.3228 19.3333 34.3228H10C8.14348 34.3228 6.36301 33.704 5.05025 32.6026C3.7375 31.5012 3 30.0074 3 28.4497V8.87302C3 7.3154 3.7375 5.82157 5.05025 4.72017C6.36301 3.61876 8.14348 3 10 3H19.3333C21.1898 3 22.9703 3.61876 24.2831 4.72017C25.5958 5.82157 26.3333 7.3154 26.3333 8.87302V10.8307M35.6667 26.4921L45 18.6614L35.6667 26.4921ZM45 18.6614L35.6667 10.8307L45 18.6614ZM45 18.6614H12.3333H45Z" stroke="#0085FF" stroke-width="5" stroke-linecap="round" stroke-linejoin="round"/>
</svg>
